<svg width="26" height="26" viewBox="0 0 26 26" fill="none" xmlns="http://www.w3.org/2000/svg">
<path d="M13.3633 25.9999H13.2331C11.4468 25.9863 9.68112 25.6163 8.03954 24.9116C6.39795 24.2069 4.91343 23.1817 3.6729 21.896C1.37253 19.4354 0.0648887 16.2096 0.00235105 12.8414C-0.0601866 9.47308 1.12681 6.20101 3.33426 3.65662C4.75641 2.06243 6.54425 0.83744 8.54416 0.0869137C8.77752 -0.00290444 9.03179 -0.0236392 9.27661 0.0271852C9.52142 0.0780096 9.74644 0.198245 9.92479 0.373533C10.09 0.542015 10.2063 0.752208 10.2613 0.981666C10.3164 1.21112 10.3081 1.45123 10.2374 1.67635C9.52357 3.63179 9.38214 5.75031 9.82971 7.78332C10.2773 9.81633 11.2952 11.6795 12.7642 13.1541C14.2468 14.619 16.1139 15.6338 18.1493 16.0811C20.1847 16.5284 22.3051 16.3899 24.2651 15.6816C24.4983 15.5995 24.7502 15.5855 24.9911 15.6412C25.2321 15.697 25.4522 15.8202 25.6257 15.9965C25.7992 16.1728 25.9189 16.3948 25.9709 16.6367C26.0229 16.8785 26.005 17.1302 25.9192 17.3622C25.2538 19.1389 24.2144 20.7517 22.8714 22.0914C21.6221 23.3373 20.139 24.324 18.5073 24.9947C16.8756 25.6655 15.1274 26.0071 13.3633 25.9999V25.9999Z" fill="#E1E8ED"/>
</svg>
